<?xml version="1.0" encoding="UTF-8" standalone="no"?>

<svg
   xmlns:dc="http://purl.org/dc/elements/1.1/"
   xmlns:cc="http://creativecommons.org/ns#"
   xmlns:rdf="http://www.w3.org/1999/02/22-rdf-syntax-ns#"
   xmlns:svg="http://www.w3.org/2000/svg"
   xmlns="http://www.w3.org/2000/svg"
   xmlns:sodipodi="http://sodipodi.sourceforge.net/DTD/sodipodi-0.dtd"
   xmlns:inkscape="http://www.inkscape.org/namespaces/inkscape"
   version="1.1"
   width="1000"
   height="600"
   viewBox="0 0 499.99998 500"
   id="svg2"
   xml:space="preserve"
   inkscape:version="0.48.4 r9939"
   sodipodi:docname="Logo-Apotheke-CH-alt.svg"><sodipodi:namedview
   pagecolor="#ffffff"
   bordercolor="#666666"
   borderopacity="1"
   objecttolerance="10"
   gridtolerance="10"
   guidetolerance="10"
   inkscape:pageopacity="0"
   inkscape:pageshadow="2"
   inkscape:window-width="1280"
   inkscape:window-height="1001"
   id="namedview8"
   showgrid="false"
   fit-margin-top="0"
   fit-margin-left="0"
   fit-margin-right="0"
   fit-margin-bottom="0"
   inkscape:zoom="0.83756549"
   inkscape:cx="213.76092"
   inkscape:cy="336.71327"
   inkscape:window-x="-8"
   inkscape:window-y="-8"
   inkscape:window-maximized="1"
   inkscape:current-layer="svg2" /><metadata
   id="metadata13"><rdf:RDF><cc:Work
       rdf:about=""><dc:format>image/svg+xml</dc:format><dc:type
         rdf:resource="http://purl.org/dc/dcmitype/StillImage" /><dc:title /></cc:Work></rdf:RDF></metadata><defs
   id="defs11" />
<polygon
   points="204.354,702.146 390.568,702.146 390.568,514.484 578.23,514.484 578.23,328.27 390.568,328.27 390.568,140.608 204.354,140.608 204.354,328.27 16.692,328.27 16.692,514.484 204.354,514.484 "
   transform="matrix(0.89041168,0,0,0.89041168,-14.862762,-125.19901)"
   id="polygon3"
   style="fill:#0c7e34;stroke:none" />
<path
   d="m 212.21181,131.17723 c 0,-1.1789 0.95541,-2.13431 2.13431,-2.13431 1.17891,0 2.13343,0.95541 2.13343,2.13431 0,1.17891 -0.95541,2.13343 -2.13343,2.13343 -1.17801,0 -2.13431,-0.95452 -2.13431,-2.13343 z m 39.00448,91.21912 c -13.87707,0 -19.87577,-2.48158 -19.87577,-7.27734 0,-4.18137 4.19829,-7.44829 19.87577,-7.44829 19.80276,0 46.83298,-14.58939 46.83298,-47.52928 0,-29.36044 -25.72221,-49.94498 -51.99202,-49.8595 -10.46145,0.0338 -20.99947,3.11644 -30.05051,10.57898 -8.36631,6.89802 -14.32227,17.03358 -14.7283,23.30475 l 17.76015,-6.93097 -1.13171,2.96508 c -5.395,5.81082 -15.47179,15.9348 -22.68858,18.79837 l 5.13767,-0.39535 -0.0792,5.61227 c 2.52966,-6.42877 11.04734,-15.88673 16.78426,-21.79995 l -4.17425,10.93426 c 2.83062,0.70698 7.53377,-3.14494 9.96281,-6.41008 7.79734,-10.48281 14.69892,-15.07467 23.47838,-15.07467 12.96707,0 31.96756,10.12665 31.96756,28.27592 0,14.28754 -13.77467,29.33461 -27.08009,29.33461 -28.33379,0 -39.54853,10.86836 -39.54853,25.49159 0,17.52509 13.91269,26.14249 39.54853,26.14249 13.57255,0 17.63727,2.76295 17.63727,7.53734 0,4.23479 -4.41377,7.10548 -17.63727,7.10548 -22.45173,0 -29.66496,11.7285 -29.66496,22.69838 0,13.15049 6.16521,23.65111 29.54297,23.65111 8.30131,0 10.40714,2.71576 10.40714,5.02727 0,5.44486 -4.53576,8.92192 -10.40803,8.92192 -9.78918,0 -20.58275,-0.32678 -27.6455,8.85425 5.54281,0 23.64221,0 31.45825,0 14.13083,0 21.36721,-7.86233 21.36721,-17.77617 0,-9.72241 -7.19987,-18.27303 -25.05619,-18.27303 -8.40103,0 -11.76234,-3.28295 -11.76234,-7.13932 0,-4.1609 3.14316,-7.16426 11.76234,-7.16426 26.47995,0 36.86304,-10.79357 36.86304,-27.26707 8.9e-4,-16.18769 -13.72569,-24.88879 -36.86304,-24.88879 z"
   id="path5"
   style="fill:#ffffff;stroke:none"
   inkscape:connector-curvature="0" />
<path
   d="M 364.71262,299.46771 327.97601,182.06604 c -4.98898,-2.4326 -22.95392,-3.78336 -28.50297,-3.78336 h -42.66942 v -1.07205 c 0,-3.12624 -2.535,-5.66124 -5.66123,-5.66124 -3.12624,0 -5.66124,2.535 -5.66124,5.66124 v 1.07205 h -41.06401 c -5.55082,0 -23.51577,1.34987 -28.50297,3.78336 l -36.73482,117.40167 c -0.1487,0.4737 -0.0686,0.9937 0.24753,1.38994 8.92549,11.15329 22.22023,17.5509 36.47572,17.5509 14.2546,0 27.54934,-6.39761 36.47571,-17.5509 0.3161,-0.39535 0.39535,-0.91446 0.24754,-1.38994 L 175.94801,182.172 c 5.03083,2.4237 22.92988,3.76466 28.47002,3.76466 h 41.06401 v 146.20115 c -13.72214,1.15219 -26.26447,6.45192 -36.36798,14.6446 H 293.1716 C 283.0681,338.58973 270.52665,333.29 256.80451,332.13781 V 185.93577 h 42.66942 c 5.53747,0 23.43742,-1.34007 28.47003,-3.76466 L 291.2679,299.46682 c -0.1487,0.4737 -0.0686,0.9937 0.24664,1.38994 8.92549,11.15329 22.22023,17.5509 36.47572,17.5509 14.25549,0 27.54933,-6.39761 36.47571,-17.5509 0.31521,-0.39535 0.39534,-0.91446 0.24665,-1.38905 z m -222.05265,-1.06404 33.24174,-106.26351 33.24263,106.26351 h -66.48437 z m 152.08766,0 33.24174,-106.26351 33.24263,106.26351 H 294.74763 z M 241.54019,160.17616 c 0,-5.30329 4.2989,-9.6022 9.6022,-9.6022 5.3024,0 9.60131,4.29891 9.60131,9.6022 0,5.3024 -4.29891,9.60131 -9.60131,9.60131 -5.30241,0 -9.6022,-4.29891 -9.6022,-9.60131 z"
   id="path7"
   style="fill:#ffffff;stroke:none"
   inkscape:connector-curvature="0" />
</svg>